<?xml version="1.0" standalone="no"?>
<!DOCTYPE svg PUBLIC "-//W3C//DTD SVG 20010904//EN"
 "http://www.w3.org/TR/2001/REC-SVG-20010904/DTD/svg10.dtd">
<svg version="1.0" xmlns="http://www.w3.org/2000/svg"
 width="512.000000pt" height="512.000000pt" viewBox="0 0 512.000000 512.000000"
 preserveAspectRatio="xMidYMid meet">
<metadata>
Created by potrace 1.14, written by Peter Selinger 2001-2017
</metadata>
<g transform="translate(0.000000,512.000000) scale(0.100000,-0.100000)"
fill="#000000" stroke="none">
<path d="M2265 4738 c-72 -13 -184 -70 -243 -123 -68 -62 -113 -126 -148 -210
-25 -63 -28 -82 -28 -185 0 -94 4 -126 22 -174 l22 -59 -27 -36 c-69 -93 -117
-142 -238 -244 -71 -60 -152 -129 -180 -152 -27 -24 -129 -109 -225 -190 -96
-82 -182 -154 -191 -162 -10 -8 -46 -15 -87 -18 -134 -7 -245 -54 -293 -123
-20 -30 -24 -48 -25 -119 l-1 -84 -79 -67 c-98 -83 -118 -103 -175 -172 -252
-306 -344 -723 -244 -1105 13 -49 85 -254 160 -455 197 -523 202 -542 209
-712 3 -86 7 -103 30 -138 53 -80 157 -102 240 -51 63 40 78 83 80 245 l3 141
85 245 c47 135 95 265 108 290 72 141 184 252 325 322 51 26 96 41 435 148
107 34 215 68 239 76 25 8 46 14 47 14 13 0 68 -113 85 -175 21 -76 22 -101
24 -445 1 -201 5 -376 9 -390 33 -100 155 -150 246 -101 19 10 48 37 65 60
l29 42 2 282 c1 155 2 283 3 285 0 1 15 -5 32 -14 82 -42 197 1 234 88 11 28
14 92 16 289 1 160 5 267 13 289 11 34 14 35 146 77 158 49 729 229 880 278
58 18 179 57 270 86 91 28 233 74 315 101 83 28 160 52 173 54 89 17 209 89
278 168 89 101 134 228 129 366 -4 118 -53 252 -119 324 -6 6 -51 56 -101 111
-241 266 -492 481 -790 676 -201 132 -232 150 -455 262 -240 121 -431 199
-678 277 -303 96 -506 131 -627 108z m185 -178 c10 -5 23 -23 28 -40 9 -26 8
-34 -13 -58 -13 -16 -35 -28 -50 -30 -112 -9 -185 -66 -220 -173 -18 -52 -41
-65 -75 -42 -18 13 -21 22 -16 52 12 73 16 86 36 113 11 15 20 31 20 36 0 18
76 85 125 110 76 39 132 50 165 32z m-276 -486 c9 -8 16 -18 17 -22 0 -4 2
-16 4 -26 2 -11 -8 -31 -25 -47 -25 -26 -31 -28 -59 -18 -50 18 -65 64 -35
107 18 26 74 30 98 6z m-145 -263 c47 -44 82 -60 230 -111 298 -100 642 -267
1016 -493 102 -62 389 -250 480 -315 289 -208 413 -315 384 -333 -8 -5 -59
-23 -114 -40 -55 -17 -152 -49 -215 -69 -63 -21 -284 -93 -490 -160 -206 -68
-391 -131 -410 -140 -80 -41 -143 -140 -176 -277 -4 -15 -9 -145 -11 -288 -5
-279 -8 -298 -56 -307 -15 -3 -35 3 -48 13 -24 18 -24 18 -29 286 -5 248 -6
270 -25 295 -39 52 -80 39 -110 -34 -17 -39 -18 -91 -19 -610 -1 -540 -2 -567
-20 -587 -24 -27 -68 -27 -91 -1 -18 19 -19 47 -21 388 -1 202 -5 378 -8 392
-4 14 -9 38 -11 54 -3 15 -18 60 -33 99 -36 96 -122 186 -201 212 -65 21 -147
27 -216 14 -77 -14 -556 -174 -623 -208 -78 -39 -145 -90 -211 -159 -92 -98
-139 -183 -197 -358 -59 -177 -71 -271 -72 -558 -1 -209 -3 -241 -18 -257 -22
-24 -55 -24 -85 0 -20 16 -23 28 -25 103 -4 157 -16 203 -150 562 -58 155
-109 290 -114 301 -26 60 -92 250 -109 317 -87 342 -13 697 205 985 52 68 103
119 211 209 l49 42 34 -19 c95 -50 235 -67 350 -41 165 37 231 109 224 246 -2
58 -7 75 -32 105 -16 20 -50 48 -75 62 l-47 25 33 30 c17 17 59 52 91 80 456
380 564 476 643 572 40 48 30 50 112 -27z m2586 -462 c124 -33 227 -133 280
-274 15 -40 14 -150 -1 -210 -58 -231 -303 -359 -527 -275 -168 63 -267 220
-255 405 16 248 258 418 503 354z m-3548 -263 c41 -9 108 -43 130 -67 19 -21
21 -28 10 -49 -14 -29 -104 -76 -162 -85 -105 -16 -233 6 -292 51 -32 24 -37
34 -33 63 9 67 207 117 347 87z"/>
<path d="M1890 3436 c-195 -41 -226 -203 -50 -265 72 -26 149 -31 236 -16 73
13 112 32 152 73 21 22 24 31 24 72 0 34 -1 38 -27 69 -53 62 -210 94 -335 67z
m180 -97 c25 -5 56 -17 68 -25 l24 -16 -24 -16 c-58 -42 -196 -47 -277 -11
-37 16 -42 21 -31 34 30 37 153 54 240 34z"/>
<path d="M2667 2964 c-1 -1 -29 -4 -63 -7 -111 -11 -214 -63 -255 -131 -23
-38 -26 -150 -5 -199 64 -150 411 -197 581 -79 67 46 85 83 85 170 0 116 -38
167 -161 213 -43 17 -173 40 -182 33z m177 -128 c57 -28 84 -61 73 -90 -7 -19
-76 -65 -105 -71 -12 -2 -27 -7 -33 -10 -21 -14 -147 -13 -209 1 -73 17 -135
53 -145 84 -5 15 0 29 17 47 49 53 121 73 248 70 82 -2 104 -7 154 -31z"/>
<path d="M1715 2749 c-17 -5 -44 -22 -60 -39 -33 -34 -28 -55 15 -77 37 -19
128 -9 153 15 19 19 19 24 7 48 -20 37 -77 63 -115 53z"/>
<path d="M3322 2630 c-42 -26 -61 -65 -41 -85 36 -35 169 -33 188 3 13 25 -4
59 -41 82 -41 25 -64 25 -106 0z"/>
<path d="M1091 2454 c-81 -21 -132 -47 -171 -87 -41 -43 -48 -61 -49 -145 -1
-74 13 -107 68 -154 154 -132 518 -98 598 55 23 45 21 166 -4 210 -24 42 -101
93 -170 113 -73 21 -205 25 -272 8z m273 -104 c115 -43 125 -102 26 -152 -33
-17 -80 -31 -115 -34 -33 -4 -62 -7 -65 -7 -3 -1 -32 2 -65 6 -70 9 -140 42
-168 79 -19 25 -19 29 -4 51 49 75 260 106 391 57z"/>
<path d="M2095 2230 c-17 -18 -15 -54 2 -71 16 -16 299 -15 318 1 18 15 20 66
3 77 -7 4 -79 8 -161 9 -125 0 -149 -2 -162 -16z"/>
<path d="M461 2128 c-33 -12 -71 -55 -71 -79 0 -43 142 -65 186 -28 51 42 -46
133 -115 107z"/>
<path d="M773 1780 c-76 -27 -159 -86 -204 -146 -50 -65 -64 -113 -49 -159 26
-79 130 -93 253 -32 183 90 268 257 173 337 -26 20 -115 21 -173 0z m117 -93
c0 -18 -48 -79 -85 -110 -61 -49 -175 -92 -188 -70 -10 16 23 68 69 108 72 63
204 110 204 72z"/>
</g>
</svg>
